<?xml version="1.0" encoding="utf-8"?>
<!-- Generator: Adobe Illustrator 16.0.3, SVG Export Plug-In . SVG Version: 6.00 Build 0)  -->
<!DOCTYPE svg PUBLIC "-//W3C//DTD SVG 1.1//EN" "http://www.w3.org/Graphics/SVG/1.1/DTD/svg11.dtd">
<svg version="1.1" id="Layer_1" xmlns="http://www.w3.org/2000/svg" xmlns:xlink="http://www.w3.org/1999/xlink" x="0px" y="0px"
	 width="566.93px" height="566.93px" viewBox="0 0 566.93 566.93" enable-background="new 0 0 566.93 566.93" xml:space="preserve">
<g>
	<path fill="#E8E8E8" d="M14.963,898.823l0.063-269.204c13.337-43.316,19.042-93.645,19.042-167.603
		c0-58.525-16.781-128.399-19.883-140.814l0.158-22.004c0-71.274,28.002-137.575,78.849-186.689
		c50.536-48.814,118.202-75.697,190.535-75.697c72.333,0,139.999,26.883,190.535,75.697
		c50.846,49.114,78.848,115.415,78.848,186.689l0.159,22.004c-3.103,12.415-19.883,82.289-19.883,140.814
		c0,73.958,5.704,124.286,19.042,167.603l0.063,269.204H14.963z"/>
	<path d="M283.728,50.985c34.655,0,68.166,6.449,99.604,19.167c30.462,12.324,57.743,30.005,81.085,52.551
		c48.056,46.419,74.521,109.1,74.521,176.495v0.103l0.001,0.102l0.146,20.125c-4.081,16.638-19.871,84.753-19.871,142.489
		c0,74.297,5.714,125.447,19.043,169.714l0.06,252.919H29.139l0.06-252.919c13.329-44.267,19.043-95.417,19.043-169.714
		c0-57.736-15.79-125.852-19.871-142.489l0.145-20.125l0.001-0.102v-0.103c0-67.395,26.466-130.075,74.522-176.495
		c23.341-22.546,50.622-40.227,81.084-52.551C215.561,57.434,249.072,50.985,283.728,50.985 M283.728,22.639
		c-156.275,0-283.557,120.284-283.557,276.56L0,322.918c0,0,19.896,77.06,19.896,139.099c0,61.948-3.84,117.226-19.042,165.444
		L0.786,912.996h565.883l-0.067-285.535c-15.202-48.219-19.042-103.496-19.042-165.444c0-62.039,19.896-139.099,19.896-139.099
		l-0.171-23.72C567.284,142.923,440.003,22.639,283.728,22.639L283.728,22.639z"/>
</g>
<g>
	<circle fill="#FFFFFF" stroke="#000000" stroke-width="11.3386" stroke-miterlimit="10" cx="216.728" cy="463.668" r="17.061"/>
	<circle fill="#FFFFFF" stroke="#000000" stroke-width="11.3386" stroke-miterlimit="10" cx="350.202" cy="463.668" r="17.061"/>
</g>
<g>
	<circle fill="#FFFFFF" stroke="#000000" stroke-width="11.3386" stroke-miterlimit="10" cx="216.728" cy="566.939" r="17.061"/>
	<circle fill="#FFFFFF" stroke="#000000" stroke-width="11.3386" stroke-miterlimit="10" cx="350.202" cy="566.939" r="17.061"/>
</g>
</svg>
